<?xml version="1.0" encoding="utf-8"?>
<!-- Generator: Adobe Illustrator 28.0.0, SVG Export Plug-In . SVG Version: 6.00 Build 0)  -->
<svg version="1.1" id="Capa_1" xmlns="http://www.w3.org/2000/svg" xmlns:xlink="http://www.w3.org/1999/xlink" x="0px" y="0px"
	 viewBox="0 0 393.6 87.6" style="enable-background:new 0 0 393.6 87.6;" xml:space="preserve">
<style type="text/css">
	.st0{fill:#010202;}
	.st1{fill:#F6A23E;}
	.st2{fill:#FFFFFF;}
</style>
<rect x="16.1" y="19.8" class="st0" width="64" height="49.4"/>
<g>
	<path class="st1" d="M25.5,41.9v-3.5l13.4-7.3v3L27.7,40v0.3l11.2,5.9v3L25.5,41.9z"/>
	<path class="st1" d="M52,27.4h3L44.2,61.1h-3L52,27.4z"/>
	<path class="st1" d="M57.3,46.2l11.2-5.9V40L57.3,34v-3l13.4,7.3v3.5l-13.4,7.3V46.2z"/>
</g>
<g>
	<path class="st2" d="M110.2,20.1h11.1l3.6,25.8h-7.8l-0.5-3.9h-9.3l-1.9,3.9h-7.8L110.2,20.1z M116.1,36.6l-1.2-10h-0.4l-4.7,10
		H116.1z"/>
	<path class="st2" d="M130.1,27.3h6.7l-0.5,2.7l0.3,0c1.8-2.2,3.6-3.1,5.7-3.1c3.9,0,6.1,3.1,5.3,7.5l-2,11.6H139l1.8-10.4
		c0.3-1.8-0.4-3-2-3c-1.6,0-3.1,1.3-3.4,3.2l-1.8,10.2h-6.8L130.1,27.3z"/>
	<path class="st2" d="M151.1,39.2l1.3-7.1H150l0.8-4.8h2.7l2.2-5.8h5.3l-1,5.8h3.9l-0.8,4.8h-3.9l-1.2,6.8c-0.2,1.4,0.4,2.4,1.8,2.4
		c0.5,0,1.3-0.1,1.8-0.3l-0.8,4.7c-1.3,0.4-3,0.6-4.1,0.6C152.5,46.4,150.4,43.4,151.1,39.2z"/>
	<path class="st2" d="M163.7,36.5c1.1-6,5.8-9.7,12.2-9.7c6.4,0,9.9,3.7,8.8,9.8c-1.1,6-5.8,9.7-12.2,9.7
		C166.1,46.4,162.6,42.7,163.7,36.5z M177.9,36.5c0.4-2.4-0.8-4-3-4c-2.2,0-4.1,1.7-4.5,4.2c-0.4,2.4,0.8,4,3,4
		C175.6,40.7,177.5,39,177.9,36.5z"/>
	<path class="st2" d="M188.7,27.3h6.7l-0.5,2.7l0.3,0c1.8-2.2,3.6-3.1,5.7-3.1c3.9,0,6.1,3.1,5.3,7.5l-2,11.6h-6.8l1.8-10.4
		c0.3-1.8-0.4-3-2-3c-1.6,0-3.1,1.3-3.4,3.2l-1.8,10.2h-6.8L188.7,27.3z"/>
	<path class="st2" d="M210.6,27.3h6.7l-3.2,18.6h-6.7L210.6,27.3z M211.2,21.5c0.4-2.1,2.2-3.6,4.4-3.6c2.3,0,3.6,1.5,3.2,3.7
		c-0.4,2.1-2.2,3.6-4.4,3.6C212.1,25.3,210.8,23.7,211.2,21.5z"/>
	<path class="st2" d="M218.2,36.5c1.1-6,5.8-9.7,12.2-9.7c6.4,0,9.9,3.7,8.8,9.8c-1.1,6-5.8,9.7-12.2,9.7
		C220.6,46.4,217.1,42.7,218.2,36.5z M232.4,36.5c0.4-2.4-0.8-4-3-4c-2.2,0-4.1,1.7-4.5,4.2c-0.4,2.4,0.8,4,3,4
		C230.1,40.7,232,39,232.4,36.5z"/>
	<path class="st2" d="M250.4,32.9c1.4-8,8.4-13.3,16.7-13.3c6.2,0,10.7,3.5,11.1,8.2l-7.2,1.3c-0.3-1.9-2.3-3.3-4.9-3.3
		c-4,0-7.4,3-8.2,7.3c-0.8,4.2,1.7,7.2,5.8,7.2c3.3,0,6.4-2.1,7.1-4.8h-8.8l0.8-4.5l16,0c-0.7,9.1-7.5,15.4-16.4,15.4
		C254.1,46.5,249,41,250.4,32.9z"/>
	<path class="st2" d="M279.9,36.5c1.1-6,5.8-9.7,12.2-9.7c6.4,0,9.9,3.7,8.8,9.8c-1.1,6-5.8,9.7-12.2,9.7
		C282.3,46.4,278.8,42.7,279.9,36.5z M294.1,36.5c0.4-2.4-0.8-4-3-4c-2.2,0-4.1,1.7-4.5,4.2c-0.4,2.4,0.8,4,3,4
		C291.8,40.7,293.7,39,294.1,36.5z M290,24.7l4.7-5.6h5.8l-5.7,5.6H290z"/>
	<path class="st2" d="M304.9,27.3h6.7l-0.5,3l0.4,0c1.5-2.1,3.6-3.4,6-3.4c2.4,0,4.4,1.5,4.9,3.6l0.4-0.1c1.4-2.2,3.6-3.5,6.2-3.5
		c3.9,0,6.2,3,5.5,7.2l-2.1,11.8h-6.7l1.8-10.3c0.3-1.7-0.5-3-2.1-3.1c-1.7,0-3,1.3-3.3,3.1l-1.8,10.3h-6.8l1.9-10.3
		c0.3-1.9-0.5-3.1-1.9-3.1c-1.6,0-2.8,1.3-3.2,3.1l-1.8,10.3h-6.7L304.9,27.3z"/>
	<path class="st2" d="M336.2,36.5c1-5.9,6-9.6,12.1-9.6c6.2,0,9.5,3.9,8.5,9.8c-0.1,0.5-0.3,1.4-0.4,1.8h-13.6
		c0.1,2,1.2,3.2,3.2,3.2c1.7,0,3-0.9,3.7-2.1l5.7,1.1c-1.5,3.5-5.7,5.6-10.4,5.6C338.7,46.4,335.1,42.5,336.2,36.5z M350.2,34.8
		c0.2-1.8-0.9-3.3-2.8-3.3c-1.9,0-3.4,1.3-4.1,3.4L350.2,34.8z"/>
	<path class="st2" d="M357.3,42.5l9.7-9.4l0.1-0.4h-7.7l1-5.4h16.8l-0.6,3.5l-9.2,9.4l-0.1,0.4h7.9l-1,5.4h-17.5L357.3,42.5z"/>
</g>
<g>
	<path class="st2" d="M98.6,69.6v-1.2h2.2V54.5h-2.2v-1.2h8.3c2.1,0,3.8,0.4,5.1,1.1s2.2,1.7,2.8,2.9s0.9,2.6,0.9,4.2
		c0,1.6-0.3,3-0.9,4.2c-0.6,1.2-1.5,2.2-2.8,2.9c-1.3,0.7-3,1-5.1,1H98.6z M102.5,68.4h4.3c1.9,0,3.3-0.3,4.4-0.9s1.8-1.4,2.2-2.5
		c0.4-1,0.7-2.2,0.7-3.6c0-1.4-0.2-2.6-0.7-3.6c-0.4-1.1-1.2-1.9-2.3-2.5c-1.1-0.6-2.5-0.9-4.3-0.9h-4.3V68.4z"/>
	<path class="st2" d="M120.7,69.6v-1.2h2.2V54.5h-2.2v-1.2h13.5V58H133v-3.6h-8.4v6.2h5.2v-2.1h1.1v5.6h-1.1v-2.3h-5.2v6.5h8.8v-3.7
		h1.2v4.9H120.7z"/>
	<path class="st2" d="M147.1,69.9c-1.4,0-2.6-0.3-3.5-0.8c-0.9-0.5-1.5-1.3-1.9-2.2L142,67v2.6h-1.2v-5.4h1.2c0,1.3,0.4,2.4,1.1,3.2
		s2,1.2,3.8,1.2c1.4,0,2.5-0.3,3.1-0.9c0.7-0.6,1-1.3,1-2.3c0-0.9-0.2-1.6-0.7-2.1c-0.5-0.5-1.3-0.8-2.4-1l-2.7-0.5
		c-1.5-0.3-2.6-0.8-3.3-1.5c-0.7-0.7-1.1-1.7-1.1-2.9c0-0.8,0.2-1.5,0.6-2.2c0.4-0.7,1-1.2,1.8-1.7c0.8-0.4,1.8-0.6,3-0.6
		c1.3,0,2.4,0.3,3.2,0.8c0.8,0.5,1.4,1.2,1.7,2.1h-0.3v-2.7h1.2v4.6h-1.2c0-1-0.4-1.9-1.2-2.6c-0.8-0.7-1.9-1-3.4-1
		c-0.9,0-1.7,0.1-2.2,0.4c-0.6,0.3-1,0.7-1.2,1.1s-0.4,1-0.4,1.6c0,0.8,0.2,1.4,0.7,1.9c0.5,0.5,1.3,0.8,2.3,1l2.7,0.5
		c1.6,0.3,2.7,0.7,3.4,1.4c0.7,0.7,1.1,1.7,1.1,3c0,0.9-0.2,1.7-0.6,2.4c-0.4,0.7-1,1.3-1.9,1.7S148.3,69.9,147.1,69.9z"/>
	<path class="st2" d="M157,69.6v-1.2h2l5.2-13.9H162v-1.2h7.3v1.2h-2.1l5.2,13.9h2v1.2h-5.8v-1.2h2.1l-2.1-5.7l0.6,0.4h-7l0.4-0.4
		l-2.1,5.7h2.1v1.2H157z M162.8,62.4l-0.3-0.4h6.3l-0.2,0.4l-2.9-7.8h-0.1L162.8,62.4z"/>
	<path class="st2" d="M178.2,69.6v-1.2h2.2V54.5h-2.2v-1.2h8.5c1.7,0,3,0.4,3.9,1.2c0.9,0.8,1.3,1.9,1.3,3.4c0,1.5-0.4,2.6-1.3,3.4
		c-0.9,0.8-2.1,1.2-3.8,1.2h-0.4l0.9-0.5l4,6.5h2.3v1.2h-3.4l-4.4-7.1h-2.3v-1.2h3c1.4,0,2.4-0.3,2.9-0.9c0.6-0.6,0.8-1.4,0.8-2.5
		c0-1-0.3-1.8-0.8-2.5c-0.6-0.6-1.5-0.9-2.9-0.9H182v13.9h2.2v1.2H178.2z"/>
	<path class="st2" d="M198,69.6v-1.2h2.2V54.5H198v-1.2h8.5c1.7,0,3,0.4,3.9,1.2c0.9,0.8,1.3,1.9,1.3,3.4c0,1.5-0.4,2.6-1.3,3.4
		c-0.9,0.8-2.1,1.2-3.8,1.2h-0.4l0.9-0.5l4,6.5h2.3v1.2h-3.4l-4.4-7.1h-2.3v-1.2h3c1.4,0,2.4-0.3,2.9-0.9c0.6-0.6,0.8-1.4,0.8-2.5
		c0-1-0.3-1.8-0.8-2.5c-0.6-0.6-1.5-0.9-2.9-0.9h-4.3v13.9h2.2v1.2H198z"/>
	<path class="st2" d="M226.5,69.9c-1.7,0-3.2-0.4-4.5-1.1s-2.3-1.7-3-3c-0.7-1.3-1.1-2.7-1.1-4.4c0-1.7,0.4-3.1,1.1-4.4
		c0.7-1.3,1.7-2.3,3-3s2.8-1.1,4.5-1.1c1.7,0,3.2,0.4,4.5,1.1s2.3,1.7,3,3c0.7,1.3,1.1,2.7,1.1,4.4c0,1.6-0.4,3.1-1.1,4.4
		s-1.7,2.3-3,3S228.2,69.9,226.5,69.9z M226.5,68.5c1.4,0,2.6-0.3,3.6-0.9c1-0.6,1.8-1.4,2.4-2.4s0.9-2.3,0.9-3.7
		c0-1.4-0.3-2.7-0.9-3.7c-0.6-1.1-1.4-1.9-2.4-2.5c-1-0.6-2.2-0.9-3.6-0.9c-1.4,0-2.6,0.3-3.6,0.9c-1,0.6-1.8,1.4-2.4,2.5
		c-0.6,1.1-0.9,2.3-0.9,3.7c0,1.4,0.3,2.6,0.9,3.7c0.6,1.1,1.4,1.9,2.4,2.4C223.9,68.2,225.1,68.5,226.5,68.5z"/>
	<path class="st2" d="M240.1,69.6v-1.2h2.2V54.5h-2.2v-1.2h6.1v1.2H244v13.9h7.4V64h1.3v5.5H240.1z"/>
	<path class="st2" d="M257.1,69.6v-1.2h2.2V54.5h-2.2v-1.2h6.1v1.2H261v13.9h7.4V64h1.3v5.5H257.1z"/>
	<path class="st2" d="M283,69.9c-1.7,0-3.2-0.4-4.5-1.1s-2.3-1.7-3-3c-0.7-1.3-1.1-2.7-1.1-4.4c0-1.7,0.4-3.1,1.1-4.4
		c0.7-1.3,1.7-2.3,3-3s2.8-1.1,4.5-1.1c1.7,0,3.2,0.4,4.5,1.1c1.3,0.7,2.3,1.7,3,3c0.7,1.3,1.1,2.7,1.1,4.4c0,1.6-0.4,3.1-1.1,4.4
		c-0.7,1.3-1.7,2.3-3,3C286.2,69.5,284.7,69.9,283,69.9z M283,68.5c1.4,0,2.6-0.3,3.6-0.9c1-0.6,1.8-1.4,2.4-2.4s0.9-2.3,0.9-3.7
		c0-1.4-0.3-2.7-0.9-3.7c-0.6-1.1-1.4-1.9-2.4-2.5c-1-0.6-2.2-0.9-3.6-0.9c-1.4,0-2.6,0.3-3.6,0.9c-1,0.6-1.8,1.4-2.4,2.5
		c-0.6,1.1-0.9,2.3-0.9,3.7c0,1.4,0.3,2.6,0.9,3.7c0.6,1.1,1.4,1.9,2.4,2.4C280.4,68.2,281.6,68.5,283,68.5z"/>
	<path class="st2" d="M313.1,69.6l-4.7-15.1h-2v-1.2h5.8v1.2h-2.1l4.1,13.8h-0.4l5.1-13.7h1.3l5.1,13.7h-0.4l4.1-13.8h-2.1v-1.2h5.7
		v1.2h-2l-4.7,15.1h-1.6l-5-13h0.4l-4.9,13H313.1z"/>
	<path class="st2" d="M336.6,69.6v-1.2h2.2V54.5h-2.2v-1.2h13.5V58h-1.2v-3.6h-8.4v6.2h5.2v-2.1h1.1v5.6h-1.1v-2.3h-5.2v6.5h8.8
		v-3.7h1.2v4.9H336.6z"/>
	<path class="st2" d="M355.7,69.6v-1.2h2.2V54.5h-2.2v-1.2h9.5c1.5,0,2.7,0.3,3.6,1c0.8,0.6,1.3,1.7,1.3,3.1c0,0.7-0.2,1.4-0.5,1.9
		c-0.3,0.5-0.7,1-1.2,1.3c-0.5,0.3-1,0.5-1.6,0.5l-0.1-0.2c1,0,1.8,0.2,2.4,0.6c0.6,0.4,1.1,0.9,1.4,1.6c0.3,0.6,0.5,1.3,0.5,2.1
		c0,1.4-0.4,2.5-1.3,3.3c-0.8,0.8-2.1,1.1-3.7,1.1H355.7z M359.5,60.4h5.7c1,0,1.8-0.3,2.3-0.8c0.5-0.6,0.8-1.3,0.8-2.2
		c0-1-0.3-1.8-0.8-2.2c-0.6-0.5-1.5-0.7-2.7-0.7h-5.2V60.4z M359.5,68.4h6c1.3,0,2.3-0.3,2.9-0.9c0.6-0.6,0.9-1.4,0.9-2.5
		c0-1-0.3-1.8-0.9-2.4c-0.6-0.6-1.5-1-2.9-1h-6V68.4z"/>
</g>
</svg>
